<svg width="163" height="32" viewBox="0 0 163 32" fill="none" xmlns="http://www.w3.org/2000/svg">
<path d="M31.0736 7.33575C30.2848 5.977 28.1986 4.70325 22.8036 6.122C21.0029 4.87944 18.8967 4.15312 16.7129 4.02167C14.5291 3.89022 12.3509 4.35865 10.4142 5.37624C8.47755 6.39383 6.85612 7.92181 5.72548 9.79475C4.59485 11.6677 3.99809 13.8142 3.99982 16.002C3.99982 16.302 4.01066 16.5995 4.03232 16.8945C0.069823 20.8595 0.137323 23.302 0.929823 24.6682C1.67482 25.9532 3.16232 26.502 5.08482 26.502C6.30857 26.502 7.70982 26.2795 9.20357 25.8882C11.0046 27.129 13.1106 27.8537 15.2938 27.9838C17.477 28.1139 19.6543 27.6446 21.5899 26.6265C23.5256 25.6084 25.146 24.0803 26.2758 22.2077C27.4056 20.335 28.0018 18.1891 27.9998 16.002C27.9998 15.7007 27.9886 15.4032 27.9661 15.107C29.7548 13.3095 30.9486 11.5807 31.3411 10.107C31.6936 8.8045 31.3898 7.877 31.0736 7.33575ZM15.9998 7.002C18.0383 7.00475 20.0157 7.69841 21.6092 8.96975C23.2027 10.2411 24.3182 12.015 24.7736 14.002C22.9998 15.5932 20.6248 17.3257 17.7398 18.9845C15.0223 20.5457 12.2961 21.7795 9.85357 22.5657C8.53825 21.3318 7.624 19.7311 7.22936 17.9713C6.83472 16.2115 6.97791 14.3737 7.64035 12.6963C8.30279 11.0188 9.45393 9.57905 10.9445 8.56371C12.4351 7.54838 14.1963 7.00429 15.9998 7.002ZM3.52357 23.1632C3.44732 23.0295 3.50232 22.1357 4.85732 20.4495C5.27819 21.5001 5.84593 22.4858 6.54357 23.377C4.38982 23.7032 3.60607 23.3032 3.52357 23.1632ZM15.9998 25.002C15.0415 25.0022 14.0894 24.8485 13.1798 24.547C15.2625 23.6992 17.2848 22.7098 19.2323 21.5857C21.1726 20.4792 23.0341 19.24 24.8036 17.877C24.3715 19.892 23.2622 21.6981 21.6603 22.9946C20.0583 24.291 18.0606 24.9995 15.9998 25.002ZM28.4461 9.33325C28.2861 9.93075 27.8448 10.692 27.1473 11.5582C26.7264 10.5062 26.1583 9.51927 25.4598 8.627C27.4386 8.33075 28.3561 8.627 28.4786 8.84075C28.4998 8.877 28.5261 9.037 28.4461 9.33325Z" fill="white"/>
<path d="M52.275 25V22.3L52.1 21.725V17C52.1 16.0833 51.825 15.375 51.275 14.875C50.725 14.3583 49.8917 14.1 48.775 14.1C48.025 14.1 47.2833 14.2167 46.55 14.45C45.8333 14.6833 45.225 15.0083 44.725 15.425L43.5 13.15C44.2167 12.6 45.0667 12.1917 46.05 11.925C47.05 11.6417 48.0833 11.5 49.15 11.5C51.0833 11.5 52.575 11.9667 53.625 12.9C54.6917 13.8167 55.225 15.2417 55.225 17.175V25H52.275ZM48.075 25.175C47.075 25.175 46.2 25.0083 45.45 24.675C44.7 24.325 44.1167 23.85 43.7 23.25C43.3 22.6333 43.1 21.9417 43.1 21.175C43.1 20.425 43.275 19.75 43.625 19.15C43.9917 18.55 44.5833 18.075 45.4 17.725C46.2167 17.375 47.3 17.2 48.65 17.2H52.525V19.275H48.875C47.8083 19.275 47.0917 19.45 46.725 19.8C46.3583 20.1333 46.175 20.55 46.175 21.05C46.175 21.6167 46.4 22.0667 46.85 22.4C47.3 22.7333 47.925 22.9 48.725 22.9C49.4917 22.9 50.175 22.725 50.775 22.375C51.3917 22.025 51.8333 21.5083 52.1 20.825L52.625 22.7C52.325 23.4833 51.7833 24.0917 51 24.525C50.2333 24.9583 49.2583 25.175 48.075 25.175ZM63.3605 25.175C62.2439 25.175 61.1689 25.0333 60.1355 24.75C59.1189 24.45 58.3105 24.0917 57.7105 23.675L58.9105 21.3C59.5105 21.6833 60.2272 22 61.0605 22.25C61.8939 22.5 62.7272 22.625 63.5605 22.625C64.5439 22.625 65.2522 22.4917 65.6855 22.225C66.1355 21.9583 66.3605 21.6 66.3605 21.15C66.3605 20.7833 66.2105 20.5083 65.9105 20.325C65.6105 20.125 65.2189 19.975 64.7355 19.875C64.2522 19.775 63.7105 19.6833 63.1105 19.6C62.5272 19.5167 61.9355 19.4083 61.3355 19.275C60.7522 19.125 60.2189 18.9167 59.7355 18.65C59.2522 18.3667 58.8605 17.9917 58.5605 17.525C58.2605 17.0583 58.1105 16.4417 58.1105 15.675C58.1105 14.825 58.3522 14.0917 58.8355 13.475C59.3189 12.8417 59.9939 12.3583 60.8605 12.025C61.7439 11.675 62.7855 11.5 63.9855 11.5C64.8855 11.5 65.7939 11.6 66.7105 11.8C67.6272 12 68.3855 12.2833 68.9855 12.65L67.7855 15.025C67.1522 14.6417 66.5105 14.3833 65.8605 14.25C65.2272 14.1 64.5939 14.025 63.9605 14.025C63.0105 14.025 62.3022 14.1667 61.8355 14.45C61.3855 14.7333 61.1605 15.0917 61.1605 15.525C61.1605 15.925 61.3105 16.225 61.6105 16.425C61.9105 16.625 62.3022 16.7833 62.7855 16.9C63.2689 17.0167 63.8022 17.1167 64.3855 17.2C64.9855 17.2667 65.5772 17.375 66.1605 17.525C66.7439 17.675 67.2772 17.8833 67.7605 18.15C68.2605 18.4 68.6605 18.7583 68.9605 19.225C69.2605 19.6917 69.4105 20.3 69.4105 21.05C69.4105 21.8833 69.1605 22.6083 68.6605 23.225C68.1772 23.8417 67.4855 24.325 66.5855 24.675C65.6855 25.0083 64.6105 25.175 63.3605 25.175ZM77.1268 25.175C75.6601 25.175 74.5268 24.8 73.7268 24.05C72.9268 23.2833 72.5268 22.1583 72.5268 20.675V8.7H75.6518V20.6C75.6518 21.2333 75.8101 21.725 76.1268 22.075C76.4601 22.425 76.9184 22.6 77.5018 22.6C78.2018 22.6 78.7851 22.4167 79.2518 22.05L80.1268 24.275C79.7601 24.575 79.3101 24.8 78.7768 24.95C78.2434 25.1 77.6934 25.175 77.1268 25.175ZM70.3268 14.25V11.75H79.2268V14.25H70.3268ZM82.6975 25V11.65H85.6725V15.325L85.3225 14.25C85.7225 13.35 86.3475 12.6667 87.1975 12.2C88.0641 11.7333 89.1391 11.5 90.4225 11.5V14.475C90.2891 14.4417 90.1641 14.425 90.0475 14.425C89.9308 14.4083 89.8141 14.4 89.6975 14.4C88.5141 14.4 87.5725 14.75 86.8725 15.45C86.1725 16.1333 85.8225 17.1583 85.8225 18.525V25H82.6975ZM98.9514 25.175C97.5847 25.175 96.368 24.8833 95.3014 24.3C94.2347 23.7 93.393 22.8833 92.7764 21.85C92.1597 20.8167 91.8514 19.6417 91.8514 18.325C91.8514 16.9917 92.1597 15.8167 92.7764 14.8C93.393 13.7667 94.2347 12.9583 95.3014 12.375C96.368 11.7917 97.5847 11.5 98.9514 11.5C100.335 11.5 101.56 11.7917 102.626 12.375C103.71 12.9583 104.551 13.7583 105.151 14.775C105.768 15.7917 106.076 16.975 106.076 18.325C106.076 19.6417 105.768 20.8167 105.151 21.85C104.551 22.8833 103.71 23.7 102.626 24.3C101.56 24.8833 100.335 25.175 98.9514 25.175ZM98.9514 22.5C99.718 22.5 100.401 22.3333 101.001 22C101.601 21.6667 102.068 21.1833 102.401 20.55C102.751 19.9167 102.926 19.175 102.926 18.325C102.926 17.4583 102.751 16.7167 102.401 16.1C102.068 15.4667 101.601 14.9833 101.001 14.65C100.401 14.3167 99.7264 14.15 98.9764 14.15C98.2097 14.15 97.5264 14.3167 96.9264 14.65C96.343 14.9833 95.8764 15.4667 95.5264 16.1C95.1764 16.7167 95.0014 17.4583 95.0014 18.325C95.0014 19.175 95.1764 19.9167 95.5264 20.55C95.8764 21.1833 96.343 21.6667 96.9264 22C97.5264 22.3333 98.2014 22.5 98.9514 22.5ZM125.915 11.5C126.981 11.5 127.923 11.7083 128.74 12.125C129.573 12.5417 130.223 13.1833 130.69 14.05C131.156 14.9 131.39 16 131.39 17.35V25H128.265V17.75C128.265 16.5667 128.006 15.6833 127.49 15.1C126.973 14.5167 126.231 14.225 125.265 14.225C124.581 14.225 123.973 14.375 123.44 14.675C122.923 14.975 122.515 15.4167 122.215 16C121.931 16.5833 121.79 17.325 121.79 18.225V25H118.665V17.75C118.665 16.5667 118.406 15.6833 117.89 15.1C117.373 14.5167 116.631 14.225 115.665 14.225C114.981 14.225 114.373 14.375 113.84 14.675C113.323 14.975 112.915 15.4167 112.615 16C112.331 16.5833 112.19 17.325 112.19 18.225V25H109.065V11.65H112.04V15.2L111.515 14.15C111.965 13.2833 112.615 12.625 113.465 12.175C114.331 11.725 115.315 11.5 116.415 11.5C117.665 11.5 118.748 11.8083 119.665 12.425C120.598 13.0417 121.215 13.975 121.515 15.225L120.29 14.8C120.723 13.8 121.44 13 122.44 12.4C123.44 11.8 124.598 11.5 125.915 11.5ZM143.608 25V22.3L143.433 21.725V17C143.433 16.0833 143.158 15.375 142.608 14.875C142.058 14.3583 141.225 14.1 140.108 14.1C139.358 14.1 138.616 14.2167 137.883 14.45C137.166 14.6833 136.558 15.0083 136.058 15.425L134.833 13.15C135.55 12.6 136.4 12.1917 137.383 11.925C138.383 11.6417 139.416 11.5 140.483 11.5C142.416 11.5 143.908 11.9667 144.958 12.9C146.025 13.8167 146.558 15.2417 146.558 17.175V25H143.608ZM139.408 25.175C138.408 25.175 137.533 25.0083 136.783 24.675C136.033 24.325 135.45 23.85 135.033 23.25C134.633 22.6333 134.433 21.9417 134.433 21.175C134.433 20.425 134.608 19.75 134.958 19.15C135.325 18.55 135.916 18.075 136.733 17.725C137.55 17.375 138.633 17.2 139.983 17.2H143.858V19.275H140.208C139.141 19.275 138.425 19.45 138.058 19.8C137.691 20.1333 137.508 20.55 137.508 21.05C137.508 21.6167 137.733 22.0667 138.183 22.4C138.633 22.7333 139.258 22.9 140.058 22.9C140.825 22.9 141.508 22.725 142.108 22.375C142.725 22.025 143.166 21.5083 143.433 20.825L143.958 22.7C143.658 23.4833 143.116 24.0917 142.333 24.525C141.566 24.9583 140.591 25.175 139.408 25.175ZM150.569 25V11.65H153.694V25H150.569ZM152.144 9.45C151.56 9.45 151.077 9.26667 150.694 8.9C150.327 8.53333 150.144 8.09167 150.144 7.575C150.144 7.04167 150.327 6.6 150.694 6.25C151.077 5.88333 151.56 5.7 152.144 5.7C152.727 5.7 153.202 5.875 153.569 6.225C153.952 6.55833 154.144 6.98333 154.144 7.5C154.144 8.05 153.96 8.51667 153.594 8.9C153.227 9.26667 152.744 9.45 152.144 9.45ZM157.795 25V6.45H160.92V25H157.795Z" fill="white"/>
</svg>
