<svg width="64" height="64" viewBox="0 0 64 64" fill="none" xmlns="http://www.w3.org/2000/svg">
<path d="M56 12H8C6.93913 12 5.92172 12.4214 5.17157 13.1716C4.42143 13.9217 4 14.9391 4 16V48C4 49.0609 4.42143 50.0783 5.17157 50.8284C5.92172 51.5786 6.93913 52 8 52H56C57.0609 52 58.0783 51.5786 58.8284 50.8284C59.5786 50.0783 60 49.0609 60 48V16C60 14.9391 59.5786 13.9217 58.8284 13.1716C58.0783 12.4214 57.0609 12 56 12ZM51.6 16L32 29.56L12.4 16H51.6ZM8 48V17.82L30.86 33.64C31.1948 33.8723 31.5925 33.9967 32 33.9967C32.4075 33.9967 32.8052 33.8723 33.14 33.64L56 17.82V48H8Z" fill="#2C0D0D"/>
</svg>
