<svg width="64" height="64" viewBox="0 0 64 64" fill="none" xmlns="http://www.w3.org/2000/svg">
<path d="M48 8C50.1217 8 52.1566 8.84285 53.6569 10.3431C55.1572 11.8434 56 13.8783 56 16C56 18.1217 55.1572 20.1566 53.6569 21.6569C52.1566 23.1571 50.1217 24 48 24H40C38.3454 24.0003 36.7314 23.4876 35.3803 22.5324C34.0292 21.5773 33.0075 20.2267 32.456 18.6667H29.3333C26.4 18.6667 24 21.0667 24 24V24.456C25.5608 25.0068 26.9123 26.0282 27.8683 27.3793C28.8243 28.7305 29.3377 30.3449 29.3377 32C29.3377 33.6551 28.8243 35.2695 27.8683 36.6207C26.9123 37.9718 25.5608 38.9932 24 39.544V40C24 42.9333 26.4 45.3333 29.3333 45.3333H32.4533C33.006 43.7736 34.0284 42.4233 35.3798 41.4683C36.7311 40.5132 38.3452 40.0003 40 40H48C50.1217 40 52.1566 40.8429 53.6569 42.3431C55.1572 43.8434 56 45.8783 56 48C56 50.1217 55.1572 52.1566 53.6569 53.6569C52.1566 55.1571 50.1217 56 48 56H40C38.3454 56.0003 36.7314 55.4876 35.3803 54.5324C34.0292 53.5773 33.0075 52.2267 32.456 50.6667H29.3333C23.44 50.6667 18.6667 45.8933 18.6667 40H13.3333C11.2116 40 9.17678 39.1571 7.67649 37.6569C6.1762 36.1566 5.33334 34.1217 5.33334 32C5.33334 29.8783 6.1762 27.8434 7.67649 26.3431C9.17678 24.8429 11.2116 24 13.3333 24H18.6667C18.6667 18.1067 23.44 13.3333 29.3333 13.3333H32.4533C33.006 11.7736 34.0284 10.4233 35.3798 9.46828C36.7311 8.51324 38.3452 8.0003 40 8H48ZM48 45.3333H40C39.2928 45.3333 38.6145 45.6143 38.1144 46.1144C37.6143 46.6145 37.3333 47.2928 37.3333 48C37.3333 48.7072 37.6143 49.3855 38.1144 49.8856C38.6145 50.3857 39.2928 50.6667 40 50.6667H48C48.7073 50.6667 49.3855 50.3857 49.8856 49.8856C50.3857 49.3855 50.6667 48.7072 50.6667 48C50.6667 47.2928 50.3857 46.6145 49.8856 46.1144C49.3855 45.6143 48.7073 45.3333 48 45.3333ZM21.3333 29.3333H13.3333C12.6261 29.3333 11.9478 29.6143 11.4477 30.1144C10.9476 30.6145 10.6667 31.2928 10.6667 32C10.6667 32.7072 10.9476 33.3855 11.4477 33.8856C11.9478 34.3857 12.6261 34.6667 13.3333 34.6667H21.3333C22.0406 34.6667 22.7189 34.3857 23.219 33.8856C23.7191 33.3855 24 32.7072 24 32C24 31.2928 23.7191 30.6145 23.219 30.1144C22.7189 29.6143 22.0406 29.3333 21.3333 29.3333ZM48 13.3333H40C39.2928 13.3333 38.6145 13.6143 38.1144 14.1144C37.6143 14.6145 37.3333 15.2928 37.3333 16C37.3333 16.7072 37.6143 17.3855 38.1144 17.8856C38.6145 18.3857 39.2928 18.6667 40 18.6667H48C48.7073 18.6667 49.3855 18.3857 49.8856 17.8856C50.3857 17.3855 50.6667 16.7072 50.6667 16C50.6667 15.2928 50.3857 14.6145 49.8856 14.1144C49.3855 13.6143 48.7073 13.3333 48 13.3333Z" fill="#2C0D0D"/>
</svg>
