<svg width="64" height="66" viewBox="0 0 64 66" fill="none" xmlns="http://www.w3.org/2000/svg">
<path d="M21.3333 16.2623V10.8415C21.3333 9.35083 21.856 8.07424 22.9013 7.01177C23.9449 5.95111 25.2 5.42078 26.6666 5.42078H37.3333C38.8 5.42078 40.056 5.95111 41.1013 7.01177C42.1449 8.07424 42.6666 9.35083 42.6666 10.8415V16.2623H53.3333C54.8 16.2623 56.056 16.7935 57.1013 17.856C58.1449 18.9167 58.6666 20.1924 58.6666 21.6831V51.4973C58.6666 52.988 58.1449 54.2646 57.1013 55.327C56.056 56.3877 54.8 56.918 53.3333 56.918H10.6666C9.19998 56.918 7.94487 56.3877 6.90131 55.327C5.85598 54.2646 5.33331 52.988 5.33331 51.4973V21.6831C5.33331 20.1924 5.85598 18.9167 6.90131 17.856C7.94487 16.7935 9.19998 16.2623 10.6666 16.2623H21.3333ZM26.6666 16.2623H37.3333V10.8415H26.6666V16.2623ZM53.3333 40.6557H40V46.0765H24V40.6557H10.6666V51.4973H53.3333V40.6557ZM29.3333 40.6557H34.6666V35.235H29.3333V40.6557ZM10.6666 35.235H24V29.8142H40V35.235H53.3333V21.6831H10.6666V35.235Z" fill="#2C0D0D"/>
</svg>
